%FSLAX24Y24*%
%MOIN*%
G70*
G01*
G75*
G04 Layer_Physical_Order=1*
G04 Layer_Color=255*
%ADD10R,0.0089X0.0222*%
%ADD11R,0.0222X0.0089*%
%ADD12R,0.0098X0.0228*%
%ADD13R,0.0228X0.0098*%
%ADD14C,0.0060*%
%ADD15C,0.0100*%
%ADD16C,0.0080*%
%ADD17C,0.0591*%
%ADD18R,0.0591X0.0591*%
D10*
X42450Y27900D02*
D03*
X42607D02*
D03*
Y28348D02*
D03*
X42450D02*
D03*
D11*
X42831Y27966D02*
D03*
Y28124D02*
D03*
Y28281D02*
D03*
X42226D02*
D03*
Y28124D02*
D03*
Y27966D02*
D03*
D12*
X36502Y28443D02*
D03*
Y27766D02*
D03*
D13*
X36754Y28400D02*
D03*
Y28203D02*
D03*
Y28006D02*
D03*
Y27809D02*
D03*
X36250D02*
D03*
Y28006D02*
D03*
Y28203D02*
D03*
Y28400D02*
D03*
D14*
X44000Y26000D02*
X44100D01*
X42607Y27393D02*
X44000Y26000D01*
X42607Y27393D02*
Y27900D01*
X41000Y26000D02*
X42450Y27450D01*
Y27900D01*
X43798Y27000D02*
X44000D01*
X43250Y27548D02*
X43798Y27000D01*
X43250Y27548D02*
Y27850D01*
X43134Y27966D02*
X43250Y27850D01*
X42831Y27966D02*
X43134D01*
X43798Y27000D02*
X44000D01*
X43876Y28124D02*
X44000Y28000D01*
X42831Y28124D02*
X43876D01*
X43281Y28281D02*
X44000Y29000D01*
X42831Y28281D02*
X43281D01*
X42607Y28607D02*
X44000Y30000D01*
X42607Y28348D02*
Y28607D01*
X41966Y27966D02*
X42226D01*
X41124Y28124D02*
X42226D01*
X42019Y28281D02*
X42226D01*
X42450Y28348D02*
Y29200D01*
D15*
X41000Y26900D02*
X41700Y27600D01*
Y27700D01*
X41000Y28000D02*
X41124Y28124D01*
X41000Y29000D02*
X41300D01*
X41750Y28550D01*
X41000Y30000D02*
X41650D01*
X42450Y29200D01*
X36754Y28754D02*
X38000Y30000D01*
X37203Y28203D02*
X38000Y29000D01*
X37994Y28006D02*
X38000Y28000D01*
X37191Y27809D02*
X38000Y27000D01*
X36502Y27498D02*
X38050Y25950D01*
X34950Y25900D02*
X36250Y27200D01*
X35000Y27000D02*
X35650Y27650D01*
Y27750D01*
X35906Y28006D01*
X35000Y28000D02*
X35203Y28203D01*
X35000Y29000D02*
X35400D01*
X35600Y28800D01*
X36000Y28400D01*
X35000Y30000D02*
X35050Y30050D01*
X35950D01*
X36502Y29498D01*
D16*
X41700Y27700D02*
X41966Y27966D01*
X41750Y28550D02*
X42019Y28281D01*
X36754Y28400D02*
Y28754D01*
Y28203D02*
X37203D01*
X36754Y28006D02*
X37994D01*
X36754Y27809D02*
X37191D01*
X36502Y27498D02*
Y27766D01*
X36250Y27200D02*
Y27809D01*
X35906Y28006D02*
X36250D01*
X35203Y28203D02*
X36250D01*
X36000Y28400D02*
X36250D01*
X36502Y28443D02*
Y29498D01*
D17*
X44000Y30000D02*
D03*
Y29000D02*
D03*
Y28000D02*
D03*
Y27000D02*
D03*
X41000Y30000D02*
D03*
Y29000D02*
D03*
Y28000D02*
D03*
Y27000D02*
D03*
X38000Y30000D02*
D03*
Y29000D02*
D03*
Y28000D02*
D03*
Y27000D02*
D03*
X35000Y30000D02*
D03*
Y29000D02*
D03*
Y28000D02*
D03*
Y27000D02*
D03*
D18*
X44000Y26000D02*
D03*
X41000D02*
D03*
X38000D02*
D03*
X35000D02*
D03*
M02*
