%FSLAX24Y24*%
%MOIN*%
G70*
G01*
G75*
G04 Layer_Physical_Order=1*
G04 Layer_Color=255*
%ADD10R,0.0250X0.0200*%
%ADD11R,0.0118X0.0118*%
%ADD12R,0.0118X0.0118*%
%ADD13R,0.0236X0.0197*%
%ADD14R,0.0551X0.0295*%
%ADD15R,0.0089X0.0222*%
%ADD16R,0.0222X0.0089*%
%ADD17R,0.1732X0.1732*%
%ADD18O,0.0315X0.0138*%
%ADD19O,0.0138X0.0315*%
%ADD20C,0.0060*%
%ADD21C,0.0100*%
%ADD22C,0.0120*%
%ADD23C,0.0230*%
D10*
X33769Y33691D02*
D03*
X33269D02*
D03*
Y32585D02*
D03*
X33769D02*
D03*
X33252Y32187D02*
D03*
X33752D02*
D03*
X33252Y33285D02*
D03*
X33752D02*
D03*
X35580Y34440D02*
D03*
X36080D02*
D03*
X33752Y32913D02*
D03*
X33252D02*
D03*
D11*
X34717Y34222D02*
D03*
X34953D02*
D03*
X36848Y34312D02*
D03*
X37084D02*
D03*
D12*
X37313Y32181D02*
D03*
Y32417D02*
D03*
X37482Y32968D02*
D03*
Y32731D02*
D03*
D13*
X33938Y30990D02*
D03*
X34332D02*
D03*
D14*
X37287Y33336D02*
D03*
Y33907D02*
D03*
D15*
X35250Y29975D02*
D03*
X35407D02*
D03*
X35565D02*
D03*
Y29370D02*
D03*
X35407D02*
D03*
X35250D02*
D03*
D16*
X35631Y29752D02*
D03*
Y29594D02*
D03*
X35183D02*
D03*
Y29752D02*
D03*
D17*
X35426Y32689D02*
D03*
D18*
X34245Y31793D02*
D03*
Y32049D02*
D03*
Y32305D02*
D03*
Y32561D02*
D03*
Y32816D02*
D03*
Y33072D02*
D03*
Y33328D02*
D03*
Y33584D02*
D03*
X36607D02*
D03*
Y33328D02*
D03*
Y33072D02*
D03*
Y32816D02*
D03*
Y32561D02*
D03*
Y32305D02*
D03*
Y32049D02*
D03*
Y31793D02*
D03*
D19*
X34530Y33870D02*
D03*
X34786D02*
D03*
X35042D02*
D03*
X35298D02*
D03*
X35554D02*
D03*
X35810D02*
D03*
X36066D02*
D03*
X36322D02*
D03*
Y31507D02*
D03*
X36066D02*
D03*
X35810D02*
D03*
X35554D02*
D03*
X35298D02*
D03*
X35042D02*
D03*
X34786D02*
D03*
X34530D02*
D03*
D20*
X34510Y29494D02*
X34800D01*
X34389Y29860D02*
X34504Y29975D01*
X34389Y29615D02*
X34510Y29494D01*
X34389Y29615D02*
Y29860D01*
X36812Y29594D02*
X36946Y29727D01*
X33252Y32187D02*
Y32913D01*
X34643Y29740D02*
X34655Y29752D01*
X37738Y30127D02*
Y31698D01*
X36576Y28965D02*
X37738Y30127D01*
X35631Y28965D02*
X36576D01*
X35407Y29189D02*
X35631Y28965D01*
X35426Y32689D02*
X35810Y32305D01*
X34530Y33584D02*
X35426Y32689D01*
X34530Y33584D02*
Y33870D01*
Y34036D01*
X34717Y34222D01*
X33252Y32044D02*
X33442Y31854D01*
X33252Y32044D02*
Y32187D01*
X33794Y31793D02*
X34245D01*
X33510Y32076D02*
Y33138D01*
Y32076D02*
X33794Y31793D01*
X34786Y33870D02*
X35042D01*
X35770Y34222D02*
X35810Y34182D01*
Y33870D02*
Y34182D01*
X35830Y34605D02*
X35896Y34670D01*
X35830Y34283D02*
Y34605D01*
X35770Y34222D02*
X35830Y34283D01*
X34953Y34222D02*
X35770D01*
X33769Y33691D02*
X34517Y34440D01*
X35580D01*
X36066Y34425D02*
X36080Y34440D01*
X36066Y33870D02*
Y34425D01*
X34953Y34222D02*
X35042Y34133D01*
Y33870D02*
Y34133D01*
X37482Y32968D02*
Y33299D01*
X37453Y33328D02*
X37482Y33299D01*
X36607Y33328D02*
X37453D01*
X37045Y32426D02*
X37304D01*
X36607Y32561D02*
X36910D01*
X37045Y32426D01*
X36813Y30427D02*
X37000Y30240D01*
X36321Y30427D02*
X36813D01*
X37000Y30240D02*
X37239D01*
X37336Y29945D02*
X37549Y30158D01*
X35565Y29975D02*
X35595Y29945D01*
X37336D01*
X35298Y31450D02*
X36321Y30427D01*
X35298Y31450D02*
Y31507D01*
X34504Y29975D02*
Y30424D01*
X33938Y30990D02*
X34504Y30424D01*
X34245Y31076D02*
X34332Y30990D01*
X34245Y31076D02*
Y31793D01*
X33938Y30990D02*
Y31025D01*
X33035Y31928D02*
Y33457D01*
Y31928D02*
X33938Y31025D01*
X34504Y29975D02*
X35250D01*
X34800Y29494D02*
X34893Y29586D01*
X35176D01*
X35183Y29594D01*
X34655Y29752D02*
X35183D01*
X34970Y30280D02*
X35228D01*
X35384Y30124D01*
Y29999D02*
Y30124D01*
Y29999D02*
X35407Y29975D01*
X34659Y29235D02*
X35115D01*
X35250Y29370D01*
X36308Y29594D02*
X36812D01*
X36079D02*
X36308D01*
X36085Y29370D02*
X36308Y29594D01*
X35565Y29370D02*
X36085D01*
X35921Y29752D02*
X36079Y29594D01*
X35631D02*
X36079D01*
X35631Y29752D02*
X35921D01*
X35407Y29189D02*
Y29370D01*
X37549Y30158D02*
Y30592D01*
X36083Y30169D02*
X36835D01*
X35042Y31210D02*
X36083Y30169D01*
X35042Y31210D02*
Y31507D01*
X37405Y32032D02*
X37738Y31698D01*
X36624Y32032D02*
X37405D01*
X36607Y32049D02*
X36624Y32032D01*
X37554Y30597D02*
Y31684D01*
X37445Y31793D02*
X37554Y31684D01*
X37549Y30592D02*
X37554Y30597D01*
X37010Y30535D02*
X37322D01*
X37434Y30647D01*
Y30930D01*
X37327Y31037D02*
X37434Y30930D01*
X36223Y31037D02*
X37327D01*
X35810Y31450D02*
X36223Y31037D01*
X35810Y31450D02*
Y31507D01*
X36064Y30940D02*
X36176Y30828D01*
X37185D01*
X37070Y32816D02*
X37073Y32814D01*
X36607Y32816D02*
X37070D01*
X37202Y31260D02*
X37213Y31249D01*
X36607Y31793D02*
X37445D01*
X35554Y31450D02*
X36064Y30940D01*
X35554Y31450D02*
Y31507D01*
X36256Y31260D02*
X37202D01*
X36066Y31450D02*
X36256Y31260D01*
X36066Y31450D02*
Y31507D01*
X37104D02*
X37181Y31584D01*
X36322Y31507D02*
X37104D01*
X37150Y31615D02*
X37181Y31584D01*
X33752Y32187D02*
X34125Y32561D01*
X34245D01*
X33769Y32585D02*
X33828D01*
X34060Y32816D01*
X34245D01*
X33752Y32913D02*
X33911Y33072D01*
X33752Y33232D02*
X33911Y33072D01*
X34245D01*
X33769Y33691D02*
X34132Y33328D01*
X34245D01*
X33035Y33457D02*
X33269Y33691D01*
X33363Y33285D02*
X33510Y33138D01*
X33252Y33285D02*
X33363D01*
D21*
X37266Y34511D02*
X37469Y34307D01*
X37673Y34104D01*
X36848Y34312D02*
Y34350D01*
X37009Y34511D01*
X37266D01*
X37673Y32859D02*
Y34104D01*
X37544Y32731D02*
X37673Y32859D01*
X37482Y32731D02*
X37544D01*
X37482Y32231D02*
Y32731D01*
X37432Y32181D02*
X37482Y32231D01*
X37313Y32181D02*
X37432D01*
X36894D02*
X37313D01*
X36770Y32305D02*
X36894Y32181D01*
X36607Y32305D02*
X36770D01*
X35810D02*
X36607D01*
X35896Y34670D02*
X36390D01*
X36570Y34490D01*
X34560Y30971D02*
X34900Y30631D01*
X34560Y30971D02*
Y31478D01*
X34530Y31507D02*
X34560Y31478D01*
X34786Y31172D02*
X35446Y30512D01*
X34786Y31172D02*
Y31507D01*
X37084Y33909D02*
X37086Y33907D01*
X37084Y33909D02*
Y34312D01*
X37086Y33907D02*
X37287D01*
X36763Y33584D02*
X37086Y33907D01*
X36607Y33584D02*
X36763D01*
D22*
X37009Y34511D02*
Y34790D01*
X36934Y34865D02*
X37009Y34790D01*
D23*
X34594Y29700D02*
D03*
X36934Y34865D02*
D03*
X37469Y34307D02*
D03*
X36570Y34490D02*
D03*
X33442Y31854D02*
D03*
X37045Y32426D02*
D03*
X36800Y30150D02*
D03*
X37010Y30535D02*
D03*
X37239Y30240D02*
D03*
X34653Y29242D02*
D03*
X34963Y30286D02*
D03*
X36939Y29734D02*
D03*
X37185Y30828D02*
D03*
X37213Y31249D02*
D03*
X37181Y31584D02*
D03*
X37073Y32814D02*
D03*
M02*
