%FSLAX24Y24*%
%MOIN*%
G70*
G01*
G75*
G04 Layer_Physical_Order=2*
G04 Layer_Color=16711680*
%ADD10R,0.0335X0.0157*%
%ADD11R,0.0118X0.0118*%
%ADD12R,0.0118X0.0118*%
%ADD13R,0.0295X0.0551*%
%ADD14R,0.0236X0.0197*%
%ADD15R,0.0354X0.0130*%
%ADD16R,0.0200X0.0250*%
%ADD17R,0.1437X0.1437*%
%ADD18O,0.0138X0.0315*%
%ADD19O,0.0315X0.0138*%
%ADD20C,0.0100*%
%ADD21C,0.0060*%
%ADD22C,0.0230*%
%ADD23O,0.0295X0.0118*%
%ADD24O,0.0118X0.0295*%
%ADD25R,0.1024X0.1024*%
%ADD26R,0.0472X0.0394*%
%ADD27R,0.0472X0.0394*%
%ADD28R,0.0098X0.0217*%
%ADD29R,0.0315X0.0630*%
%ADD30R,0.0118X0.0098*%
%ADD31C,0.0098*%
%ADD32R,0.0197X0.0118*%
%ADD33R,0.0118X0.0197*%
%ADD34R,0.0315X0.0354*%
%ADD35R,0.0945X0.0295*%
%ADD36R,0.0197X0.0236*%
%ADD37C,0.0150*%
%ADD38C,0.0200*%
%ADD39C,0.0120*%
D11*
X35486Y32401D02*
D03*
Y32637D02*
D03*
X37162Y29989D02*
D03*
Y29753D02*
D03*
X34450Y30418D02*
D03*
Y30182D02*
D03*
X35816Y32635D02*
D03*
Y32398D02*
D03*
X34150Y31818D02*
D03*
Y31582D02*
D03*
X34262Y32940D02*
D03*
Y33176D02*
D03*
X34062Y32940D02*
D03*
Y33176D02*
D03*
D12*
X33886Y31500D02*
D03*
X33650D02*
D03*
X36421Y32443D02*
D03*
X36185D02*
D03*
X34480Y32308D02*
D03*
X34244D02*
D03*
X34030D02*
D03*
X33794D02*
D03*
D14*
X36136Y33052D02*
D03*
X36530D02*
D03*
X35654Y33512D02*
D03*
X35260D02*
D03*
X34993Y33882D02*
D03*
X35386D02*
D03*
D20*
X35440Y29331D02*
X35520D01*
X36032Y29843D01*
X36109D01*
X34262Y33176D02*
X34274Y33188D01*
X34385D01*
X34035Y33176D02*
X34062D01*
X33886Y31500D02*
X34200D01*
X34350Y31350D01*
D21*
X35556Y32087D02*
Y32202D01*
X35486Y32273D02*
X35556Y32202D01*
X35486Y32273D02*
Y32401D01*
X35753Y32190D02*
X35816Y32252D01*
X35753Y32087D02*
Y32190D01*
X35816Y32252D02*
Y32398D01*
X36991Y29341D02*
X37143Y29492D01*
X35431Y29250D02*
X35487D01*
X37077Y29945D02*
X37245Y30114D01*
X35163Y32598D02*
X35552Y32987D01*
X36570Y34490D02*
X36593Y34513D01*
X35544Y33191D02*
X35636Y33282D01*
X35102Y33094D02*
X35193Y33186D01*
X35102Y32835D02*
Y33094D01*
X34998Y32732D02*
X35254Y32987D01*
X37245Y30114D02*
Y30234D01*
Y29994D02*
Y30114D01*
X35163Y31694D02*
Y32598D01*
X36991Y29213D02*
Y29341D01*
X37143Y29492D02*
Y29734D01*
X36939D02*
X37143D01*
X37239Y30240D02*
X37427D01*
X34450Y30418D02*
Y30550D01*
X36072Y32987D02*
X36136Y33052D01*
X35552Y32987D02*
X36072D01*
X36976Y31694D02*
X37301Y32018D01*
X36737Y31694D02*
X36976D01*
X34998Y32630D02*
Y32732D01*
X34480Y32308D02*
Y32520D01*
X34677Y32308D02*
X34998Y32630D01*
X35636Y33494D02*
X35654Y33512D01*
X35636Y33282D02*
Y33494D01*
X35193Y33186D02*
X35195Y33184D01*
X35193Y33186D02*
Y33445D01*
X35195Y33184D02*
X35347D01*
X35254Y32987D02*
X35347D01*
X35193Y33445D02*
X35260Y33512D01*
X35486Y32637D02*
X35515D01*
X35965Y32102D02*
Y32603D01*
X35934Y32635D02*
X35965Y32603D01*
X35816Y32635D02*
X35934D01*
X34480Y32308D02*
X34677D01*
X35950Y32087D02*
X35965Y32102D01*
X34262Y32520D02*
X34262Y32520D01*
X34062Y32520D02*
X34262D01*
X34150Y31818D02*
X34482D01*
X34547Y31753D01*
Y31350D02*
Y31753D01*
X36475Y29841D02*
X36700Y29616D01*
X36715Y29945D02*
X37077D01*
X36475Y29841D02*
Y30037D01*
X36357Y30155D02*
X36475Y30037D01*
X36595Y30065D02*
X36715Y29945D01*
X36595Y30065D02*
Y30119D01*
X36439Y30275D02*
X36595Y30119D01*
X36800Y30150D02*
X36803D01*
X36828Y30176D01*
X35753Y30247D02*
X35845Y30155D01*
X36218Y30275D02*
X36439D01*
X35845Y30155D02*
X36357D01*
X36147Y30346D02*
X36218Y30275D01*
X36147Y30346D02*
Y30513D01*
X36700Y29200D02*
Y29616D01*
X36344Y30513D02*
X36491D01*
X36828Y30176D01*
X36910Y31103D02*
X37185Y30828D01*
X36737Y31103D02*
X36910D01*
X36737Y30807D02*
X37010Y30535D01*
X36737Y30807D02*
Y30906D01*
X37162Y31300D02*
X37213Y31249D01*
X37220Y31242D01*
X37093Y31497D02*
X37181Y31584D01*
X36737Y31497D02*
X37093D01*
X36737Y31300D02*
X37162D01*
X34965Y29490D02*
X35052Y29577D01*
X35062D01*
X35062Y29577D01*
X35126D01*
X34965Y29490D02*
X34965D01*
X35126Y29577D02*
X35436Y29887D01*
X35556D01*
X36002Y29664D02*
X36100Y29762D01*
X35753Y30247D02*
Y30513D01*
X35950D02*
Y31300D01*
X34547Y30647D02*
X34903D01*
X34547D02*
Y31015D01*
X34903Y30647D02*
X35163Y30906D01*
X34450Y30550D02*
X34547Y30647D01*
X34744Y31015D02*
X34832Y31103D01*
X35163D01*
X34744Y31350D02*
X34794Y31300D01*
X35163D01*
X36100Y29250D02*
X36150Y29200D01*
X36700D01*
X35556Y29887D02*
Y30513D01*
X35753Y31497D02*
X35950Y31300D01*
X35163Y31497D02*
X35753D01*
X35950Y31300D02*
X36344Y31694D01*
Y32087D01*
X35753Y31497D02*
Y32087D01*
X36147D02*
Y32447D01*
X34062Y32697D02*
Y32940D01*
X34262Y32697D02*
Y32940D01*
X33862Y32520D02*
X33862Y32520D01*
Y32376D02*
Y32520D01*
X33794Y32308D02*
X33862Y32376D01*
Y32697D02*
X34062D01*
X34062Y33176D02*
X34262D01*
X34462Y32520D02*
X34480D01*
X34030Y32488D02*
X34062Y32520D01*
X34030Y32308D02*
Y32488D01*
X34244Y32308D02*
X34262Y32326D01*
Y32520D01*
X34062Y32697D02*
X34062Y32697D01*
X34262Y32697D02*
X34262Y32697D01*
X34462D01*
Y32326D02*
X34480Y32308D01*
X34462Y32520D02*
X34462Y32520D01*
D22*
X36570Y34490D02*
D03*
D23*
X35163Y31300D02*
D03*
X36737Y31694D02*
D03*
X35163Y30906D02*
D03*
Y31694D02*
D03*
Y31497D02*
D03*
X36737Y30906D02*
D03*
Y31103D02*
D03*
Y31300D02*
D03*
Y31497D02*
D03*
X35163Y31103D02*
D03*
D24*
X35556Y30513D02*
D03*
X35753D02*
D03*
X35950D02*
D03*
X36344Y32087D02*
D03*
X36147D02*
D03*
X35950D02*
D03*
X35753D02*
D03*
X35556D02*
D03*
X36147Y30513D02*
D03*
X36344D02*
D03*
D25*
X35950Y31300D02*
D03*
D26*
X36109Y29843D02*
D03*
X35440D02*
D03*
Y29331D02*
D03*
D27*
X36109D02*
D03*
D28*
X34744Y31015D02*
D03*
X34547D02*
D03*
X34350D02*
D03*
X34744Y31350D02*
D03*
X34547D02*
D03*
X34350D02*
D03*
D29*
X33161Y34617D02*
D03*
X34499D02*
D03*
D30*
X33862Y32697D02*
D03*
Y32520D02*
D03*
X34462Y32520D02*
D03*
Y32697D02*
D03*
X34262Y32697D02*
D03*
Y32520D02*
D03*
X34062Y32520D02*
D03*
Y32697D02*
D03*
D31*
X35347Y32994D02*
D03*
Y33191D02*
D03*
X35544Y32994D02*
D03*
Y33191D02*
D03*
D32*
X36991Y29213D02*
D03*
X36715D02*
D03*
D33*
X34994Y29560D02*
D03*
Y29835D02*
D03*
D34*
X36719Y33541D02*
D03*
X36168D02*
D03*
D35*
X33421Y29149D02*
D03*
Y30507D02*
D03*
D36*
X34489Y33483D02*
D03*
Y33876D02*
D03*
D37*
X36439Y34358D02*
X36570Y34490D01*
X36439Y34272D02*
Y34358D01*
X36168Y34002D02*
X36439Y34272D01*
X36168Y33541D02*
Y34002D01*
X36136Y33052D02*
Y33455D01*
X34385Y33188D02*
X34489Y33292D01*
Y33483D01*
D38*
X34987Y33876D02*
X34993Y33882D01*
X34489Y33876D02*
X34987D01*
X34489D02*
Y34549D01*
X34557Y34617D01*
X34513Y34381D02*
Y34532D01*
X33373Y30507D02*
Y31278D01*
D39*
X33532Y31500D02*
X33650D01*
X33373Y31341D02*
X33532Y31500D01*
X33373Y31278D02*
Y31341D01*
M02*
