%FSLAX24Y24*%
%MOIN*%
G70*
G01*
G75*
G04 Layer_Physical_Order=1*
G04 Layer_Color=255*
%ADD10R,0.0335X0.0157*%
%ADD11R,0.0118X0.0118*%
%ADD12R,0.0118X0.0118*%
%ADD13R,0.0295X0.0551*%
%ADD14R,0.0236X0.0197*%
%ADD15R,0.0354X0.0130*%
%ADD16R,0.0200X0.0250*%
%ADD17R,0.1437X0.1437*%
%ADD18O,0.0138X0.0315*%
%ADD19O,0.0315X0.0138*%
%ADD20C,0.0100*%
%ADD21C,0.0060*%
%ADD22C,0.0230*%
D10*
X41770Y34461D02*
D03*
Y34205D02*
D03*
Y33949D02*
D03*
X42518D02*
D03*
Y34461D02*
D03*
D11*
X43173Y34291D02*
D03*
Y34527D02*
D03*
X40306Y33030D02*
D03*
Y33266D02*
D03*
X36499Y33314D02*
D03*
Y33078D02*
D03*
X37766Y32196D02*
D03*
Y32432D02*
D03*
X45053Y32961D02*
D03*
Y32725D02*
D03*
X34392Y33721D02*
D03*
Y33485D02*
D03*
D12*
X43813Y29907D02*
D03*
X44049D02*
D03*
X42564Y30562D02*
D03*
X42328D02*
D03*
X43329Y30759D02*
D03*
X43092D02*
D03*
X43110Y29623D02*
D03*
X42874D02*
D03*
X43613Y30387D02*
D03*
X43376D02*
D03*
X43001Y29950D02*
D03*
X42765D02*
D03*
D13*
X36085Y29644D02*
D03*
X36656D02*
D03*
D14*
X44521Y30191D02*
D03*
X44915D02*
D03*
X41747Y29710D02*
D03*
X42140D02*
D03*
D15*
X35593Y33340D02*
D03*
Y33537D02*
D03*
Y33734D02*
D03*
Y33930D02*
D03*
X34924Y33340D02*
D03*
Y33537D02*
D03*
Y33734D02*
D03*
Y33931D02*
D03*
D16*
X44633Y32395D02*
D03*
Y32895D02*
D03*
X44173Y32395D02*
D03*
Y32895D02*
D03*
D17*
X35543Y31221D02*
D03*
D18*
X34904Y30237D02*
D03*
X35159D02*
D03*
X35415D02*
D03*
X35671D02*
D03*
X35927D02*
D03*
X36183D02*
D03*
Y32205D02*
D03*
X35927D02*
D03*
X35671D02*
D03*
X35415D02*
D03*
X35159D02*
D03*
X34904D02*
D03*
D19*
X36528Y30581D02*
D03*
Y30837D02*
D03*
Y31093D02*
D03*
Y31349D02*
D03*
Y31605D02*
D03*
Y31861D02*
D03*
X34559D02*
D03*
Y31605D02*
D03*
Y31349D02*
D03*
Y31093D02*
D03*
Y30837D02*
D03*
Y30581D02*
D03*
D20*
X40259Y35360D02*
X40462Y35157D01*
X40666Y34953D01*
X39841Y35162D02*
Y35199D01*
X40666Y33709D02*
Y34953D01*
X40538Y33581D02*
X40666Y33709D01*
X40475Y33581D02*
X40538D01*
X40475Y33080D02*
Y33581D01*
X40425Y33030D02*
X40475Y33080D01*
X40306Y33030D02*
X40425D01*
X40077Y34758D02*
X40079Y34756D01*
X40077Y34758D02*
Y35162D01*
X40079Y34756D02*
X40280D01*
X39757Y34433D02*
X40079Y34756D01*
X39600Y34433D02*
X39757D01*
D21*
X40475Y33817D02*
Y34148D01*
X40446Y34177D02*
X40475Y34148D01*
X39600Y34177D02*
X40446D01*
X40038Y33275D02*
X40297D01*
X39600Y33410D02*
X39903D01*
X40038Y33275D01*
X35671Y29405D02*
Y30237D01*
Y29405D02*
X35842Y29235D01*
X37028D01*
X37205Y29411D01*
Y30766D01*
X35415Y29491D02*
Y30237D01*
X35792Y29115D02*
X37078D01*
X37325Y29361D01*
Y30816D01*
X37314Y30827D02*
X37325Y30816D01*
X37314Y30827D02*
Y30827D01*
X35415Y29491D02*
X35792Y29115D01*
X37165Y30976D02*
X37314Y30827D01*
X37165Y30976D02*
Y31087D01*
D22*
X36570Y34490D02*
D03*
M02*
